<svg viewBox="0 0 1400 1200" xmlns="http://www.w3.org/2000/svg">
  <defs>
    <linearGradient id="headerGrad" x1="0%" y1="0%" x2="100%" y2="100%">
      <stop offset="0%" style="stop-color:#667eea;stop-opacity:1" />
      <stop offset="100%" style="stop-color:#764ba2;stop-opacity:1" />
    </linearGradient>
    <linearGradient id="cardGrad" x1="0%" y1="0%" x2="100%" y2="100%">
      <stop offset="0%" style="stop-color:#ffffff;stop-opacity:1" />
      <stop offset="100%" style="stop-color:#f8f9fa;stop-opacity:1" />
    </linearGradient>
    <filter id="shadow" x="-20%" y="-20%" width="140%" height="140%">
      <feDropShadow dx="0" dy="4" stdDeviation="6" flood-color="#000000" flood-opacity="0.1"/>
    </filter>
  </defs>

  <!-- Background -->
  <rect width="1400" height="1200" fill="#f5f5f5"/>

  <!-- Header -->
  <rect x="20" y="20" width="1360" height="100" rx="15" fill="url(#headerGrad)" filter="url(#shadow)"/>
  <text x="700" y="60" text-anchor="middle" fill="white" font-family="Arial, sans-serif" font-size="28" font-weight="bold">π“ λ¶„μ„ λ€μ‹λ³΄λ“</text>
  <text x="700" y="85" text-anchor="middle" fill="white" font-family="Arial, sans-serif" font-size="16" opacity="0.9">μƒμ„Έν• ν¨ν„΄ λ¶„μ„ κ²°κ³Όμ™€ ν†µκ³„</text>

  <!-- Tab Navigation -->
  <rect x="20" y="140" width="1360" height="50" rx="10 10 0 0" fill="white" filter="url(#shadow)"/>

  <rect x="40" y="150" width="120" height="30" rx="5" fill="white" stroke="#007bff" stroke-width="2"/>
  <text x="100" y="170" text-anchor="middle" fill="#007bff" font-family="Arial, sans-serif" font-size="14" font-weight="bold">π“ κ°μ”</text>

  <rect x="170" y="150" width="120" height="30" rx="5" fill="#f8f9fa"/>
  <text x="230" y="170" text-anchor="middle" fill="#495057" font-family="Arial, sans-serif" font-size="14">π”Ά μ¶ν„ λΉλ„</text>

  <rect x="300" y="150" width="120" height="30" rx="5" fill="#f8f9fa"/>
  <text x="360" y="170" text-anchor="middle" fill="#495057" font-family="Arial, sans-serif" font-size="14">π¤ λ™λ° μ¶ν„</text>

  <rect x="430" y="150" width="120" height="30" rx="5" fill="#f8f9fa"/>
  <text x="490" y="170" text-anchor="middle" fill="#495057" font-family="Arial, sans-serif" font-size="14">π“ νΈλ λ“</text>

  <rect x="560" y="150" width="120" height="30" rx="5" fill="#f8f9fa"/>
  <text x="620" y="170" text-anchor="middle" fill="#495057" font-family="Arial, sans-serif" font-size="14">π“ μ°¨νΈ</text>

  <!-- Main Content Area -->
  <rect x="20" y="190" width="1360" height="980" rx="0 0 10 10" fill="white" filter="url(#shadow)"/>

  <!-- Overview Tab Content -->
  <text x="50" y="230" fill="#495057" font-family="Arial, sans-serif" font-size="22" font-weight="bold">π“ λ¶„μ„ κ°μ”</text>

  <!-- Statistics Cards Grid -->
  <g transform="translate(50, 260)">
    <!-- Card 1: Basic Statistics -->
    <rect x="0" y="0" width="320" height="180" rx="10" fill="url(#cardGrad)" filter="url(#shadow)"/>
    <text x="20" y="30" fill="#495057" font-family="Arial, sans-serif" font-size="16" font-weight="bold">κΈ°λ³Έ ν†µκ³„</text>

    <!-- Mini stats grid -->
    <rect x="20" y="50" width="70" height="60" rx="5" fill="#f8f9fa"/>
    <text x="55" y="75" text-anchor="middle" fill="#007bff" font-family="Arial, sans-serif" font-size="18" font-weight="bold">1,234</text>
    <text x="55" y="95" text-anchor="middle" fill="#6c757d" font-family="Arial, sans-serif" font-size="10">μ΄ νμ°¨</text>

    <rect x="100" y="50" width="70" height="60" rx="5" fill="#f8f9fa"/>
    <text x="135" y="75" text-anchor="middle" fill="#007bff" font-family="Arial, sans-serif" font-size="18" font-weight="bold">3μ΅°</text>
    <text x="135" y="95" text-anchor="middle" fill="#6c757d" font-family="Arial, sans-serif" font-size="10">μµλ‹¤ μ¶ν„ μ΅°</text>

    <rect x="180" y="50" width="70" height="60" rx="5" fill="#f8f9fa"/>
    <text x="215" y="75" text-anchor="middle" fill="#007bff" font-family="Arial, sans-serif" font-size="18" font-weight="bold">156</text>
    <text x="215" y="95" text-anchor="middle" fill="#6c757d" font-family="Arial, sans-serif" font-size="10">μ¶ν„ νμ</text>

    <rect x="260" y="50" width="70" height="60" rx="5" fill="#f8f9fa"/>
    <text x="295" y="75" text-anchor="middle" fill="#007bff" font-family="Arial, sans-serif" font-size="18" font-weight="bold">7</text>
    <text x="295" y="95" text-anchor="middle" fill="#6c757d" font-family="Arial, sans-serif" font-size="10">2λ“± μµλ‹¤λ²νΈ</text>

    <!-- Card 2: Analysis Info -->
    <rect x="340" y="0" width="320" height="180" rx="10" fill="url(#cardGrad)" filter="url(#shadow)"/>
    <text x="360" y="30" fill="#495057" font-family="Arial, sans-serif" font-size="16" font-weight="bold">λ¶„μ„ μ •λ³΄</text>

    <text x="360" y="55" fill="#333" font-family="Arial, sans-serif" font-size="12"><tspan font-weight="bold">λ°μ΄ν„° λ²”μ„:</tspan> 1ν ~ 1234ν</text>
    <text x="360" y="75" fill="#333" font-family="Arial, sans-serif" font-size="12"><tspan font-weight="bold">λ¶„μ„ μΌμ‹:</tspan> 2025-05-31 16:15:30</text>
    <text x="360" y="95" fill="#333" font-family="Arial, sans-serif" font-size="12"><tspan font-weight="bold">μ΄ λ¶„μ„ νμ°¨:</tspan> 1,234ν</text>

    <rect x="360" y="110" width="280" height="50" rx="5" fill="#e3f2fd" stroke="#2196f3"/>
    <text x="370" y="130" fill="#1976d2" font-family="Arial, sans-serif" font-size="11">π’΅ μµκ·Ό 50νμ°¨ κΈ°μ¤€μΌλ΅ νΈλ λ“ λ¶„μ„μ΄ μν–‰λμ—μµλ‹λ‹¤.</text>
    <text x="370" y="145" fill="#1976d2" font-family="Arial, sans-serif" font-size="11">   λ™λ° μ¶ν„ ν¨ν„΄κ³Ό ν™€μ§ λ¶„ν¬λ„ ν•¨κ» λ¶„μ„λμ—μµλ‹λ‹¤.</text>
  </g>

  <!-- Key Insights Section -->
  <g transform="translate(50, 470)">
    <rect x="0" y="0" width="680" height="200" rx="10" fill="url(#headerGrad)" filter="url(#shadow)"/>
    <text x="20" y="30" fill="white" font-family="Arial, sans-serif" font-size="18" font-weight="bold">π’΅ μ£Όμ” μΈμ‚¬μ΄νΈ</text>

    <text x="30" y="55" fill="white" font-family="Arial, sans-serif" font-size="13">β€Ά μ΄ 1,234νμ°¨ λ°μ΄ν„°λ¥Ό λ¶„μ„ν–μµλ‹λ‹¤.</text>
    <text x="30" y="75" fill="white" font-family="Arial, sans-serif" font-size="13">β€Ά 2λ“± λ‹Ήμ²¨λ²νΈ μ¤‘ '7'μ΄ 156νλ΅ κ°€μ¥ λ§μ΄ μ¶ν„ν–μµλ‹λ‹¤.</text>
    <text x="30" y="95" fill="white" font-family="Arial, sans-serif" font-size="13">β€Ά κ° μλ¦¬λ³„λ΅ μ¶ν„ λΉλ„μ™€ μµκ·Ό νΈλ λ“κ°€ λ‹¤λ¥΄κ² λ‚νƒ€λ‚©λ‹λ‹¤.</text>
    <text x="30" y="115" fill="white" font-family="Arial, sans-serif" font-size="13">β€Ά λ™λ° μ¶ν„ ν¨ν„΄μ„ ν†µν•΄ νΉμ • μ«μ μ΅°ν•©μ κ²½ν–¥μ„ νμ•…ν•  μ μμµλ‹λ‹¤.</text>
    <text x="30" y="135" fill="white" font-family="Arial, sans-serif" font-size="13">β€Ά ν™€μμ™€ μ§μμ μ „μ²΄ λΉ„μ¨μ€ 52.3% : 47.7%λ΅ λ‚νƒ€λ‚¬μµλ‹λ‹¤.</text>
    <text x="30" y="155" fill="white" font-family="Arial, sans-serif" font-size="13">β€Ά μµκ·Ό νΈλ λ“μ—μ„ νΉμ • μ«μλ“¤μ μ¶ν„ λΉλ„κ°€ μ¦κ°€ν•κ³  μμµλ‹λ‹¤.</text>
  </g>

  <!-- Detailed Analysis Charts -->
  <text x="50" y="720" fill="#495057" font-family="Arial, sans-serif" font-size="18" font-weight="bold">π“ μƒμ„Έ λ¶„μ„ μ°¨νΈ</text>

  <!-- Chart Grid -->
  <g transform="translate(50, 750)">
    <!-- Chart 1: Position-wise Number Frequency -->
    <rect x="0" y="0" width="320" height="200" rx="10" fill="white" stroke="#dee2e6" filter="url(#shadow)"/>
    <text x="160" y="25" text-anchor="middle" fill="#495057" font-family="Arial, sans-serif" font-size="14" font-weight="bold">1μλ¦¬ μ¶ν„ λΉλ„</text>

    <!-- Table representation -->
    <rect x="20" y="40" width="280" height="20" fill="#f8f9fa"/>
    <text x="30" y="55" fill="#495057" font-family="Arial, sans-serif" font-size="10" font-weight="bold">μ«μ</text>
    <text x="80" y="55" fill="#495057" font-family="Arial, sans-serif" font-size="10" font-weight="bold">μ¶ν„ νμ</text>
    <text x="150" y="55" fill="#495057" font-family="Arial, sans-serif" font-size="10" font-weight="bold">λΉ„μ¨(%)</text>

    <text x="30" y="75" fill="#333" font-family="Arial, sans-serif" font-size="10">1</text>
    <text x="80" y="75" fill="#333" font-family="Arial, sans-serif" font-size="10">145</text>
    <text x="150" y="75" fill="#333" font-family="Arial, sans-serif" font-size="10">11.7%</text>

    <text x="30" y="90" fill="#333" font-family="Arial, sans-serif" font-size="10">2</text>
    <text x="80" y="90" fill="#333" font-family="Arial, sans-serif" font-size="10">134</text>
    <text x="150" y="90" fill="#333" font-family="Arial, sans-serif" font-size="10">10.9%</text>

    <text x="30" y="105" fill="#333" font-family="Arial, sans-serif" font-size="10">3</text>
    <text x="80" y="105" fill="#333" font-family="Arial, sans-serif" font-size="10">128</text>
    <text x="150" y="105" fill="#333" font-family="Arial, sans-serif" font-size="10">10.4%</text>

    <text x="30" y="120" fill="#333" font-family="Arial, sans-serif" font-size="10">4</text>
    <text x="80" y="120" fill="#333" font-family="Arial, sans-serif" font-size="10">142</text>
    <text x="150" y="120" fill="#333" font-family="Arial, sans-serif" font-size="10">11.5%</text>

    <text x="30" y="135" fill="#333" font-family="Arial, sans-serif" font-size="10">5</text>
    <text x="80" y="135" fill="#333" font-family="Arial, sans-serif" font-size="10">139</text>
    <text x="150" y="135" fill="#333" font-family="Arial, sans-serif" font-size="10">11.3%</text>

    <!-- Visual bars -->
    <rect x="200" y="67" width="58" height="8" fill="#007bff" opacity="0.7"/>
    <rect x="200" y="82" width="54" height="8" fill="#007bff" opacity="0.7"/>
    <rect x="200" y="97" width="51" height="8" fill="#007bff" opacity="0.7"/>
    <rect x="200" y="112" width="57" height="8" fill="#007bff" opacity="0.7"/>
    <rect x="200" y="127" width="56" height="8" fill="#007bff" opacity="0.7"/>

    <!-- Chart 2: Companion Numbers -->
    <rect x="340" y="0" width="320" height="200" rx="10" fill="white" stroke="#dee2e6" filter="url(#shadow)"/>
    <text x="500" y="25" text-anchor="middle" fill="#495057" font-family="Arial, sans-serif" font-size="14" font-weight="bold">1μλ¦¬ μ£Όμ” λ™λ° μ¶ν„</text>

    <rect x="360" y="40" width="280" height="140" rx="5" fill="#f8f9fa"/>
    <text x="370" y="60" fill="#007bff" font-family="Arial, sans-serif" font-size="12" font-weight="bold">1λ²κ³Ό ν•¨κ» λ‚μ¨ μ«μλ“¤:</text>

    <rect x="370" y="70" width="260" height="20" rx="3" fill="white"/>
    <text x="380" y="85" fill="#333" font-family="Arial, sans-serif" font-size="10">2μλ¦¬_5</text>
    <text x="600" y="85" fill="#333" font-family="Arial, sans-serif" font-size="10" font-weight="bold">23ν</text>

    <rect x="370" y="95" width="260" height="20" rx="3" fill="white"/>
    <text x="380" y="110" fill="#333" font-family="Arial, sans-serif" font-size="10">3μλ¦¬_8</text>
    <text x="600" y="110" fill="#333" font-family="Arial, sans-serif" font-size="10" font-weight="bold">21ν</text>

    <rect x="370" y="120" width="260" height="20" rx="3" fill="white"/>
    <text x="380" y="135" fill="#333" font-family="Arial, sans-serif" font-size="10">4μλ¦¬_2</text>
    <text x="600" y="135" fill="#333" font-family="Arial, sans-serif" font-size="10" font-weight="bold">19ν</text>

    <rect x="370" y="145" width="260" height="20" rx="3" fill="white"/>
    <text x="380" y="160" fill="#333" font-family="Arial, sans-serif" font-size="10">5μλ¦¬_7</text>
    <text x="600" y="160" fill="#333" font-family="Arial, sans-serif" font-size="10" font-weight="bold">18ν</text>

    <!-- Chart 3: Trend Analysis -->
    <rect x="680" y="0" width="320" height="200" rx="10" fill="white" stroke="#dee2e6" filter="url(#shadow)"/>
    <text x="840" y="25" text-anchor="middle" fill="#495057" font-family="Arial, sans-serif" font-size="14" font-weight="bold">1μλ¦¬ νΈλ λ“ μ μ</text>

    <rect x="700" y="40" width="280" height="20" fill="#f8f9fa"/>
    <text x="710" y="55" fill="#495057" font-family="Arial, sans-serif" font-size="10" font-weight="bold">μ«μ</text>
    <text x="760" y="55" fill="#495057" font-family="Arial, sans-serif" font-size="10" font-weight="bold">νΈλ λ“ μ μ</text>
    <text x="850" y="55" fill="#495057" font-family="Arial, sans-serif" font-size="10" font-weight="bold">μµκ·Ό μ¶ν„</text>

    <text x="710" y="75" fill="#333" font-family="Arial, sans-serif" font-size="10">1</text>
    <rect x="750" y="67" width="40" height="12" rx="2" fill="#dc3545"/>
    <text x="770" y="77" text-anchor="middle" fill="white" font-family="Arial, sans-serif" font-size="8" font-weight="bold">0.78</text>
    <text x="850" y="75" fill="#333" font-family="Arial, sans-serif" font-size="10">1230ν</text>

    <text x="710" y="95" fill="#333" font-family="Arial, sans-serif" font-size="10">2</text>
    <rect x="750" y="87" width="35" height="12" rx="2" fill="#fd7e14"/>
    <text x="767" y="97" text-anchor="middle" fill="white" font-family="Arial, sans-serif" font-size="8" font-weight="bold">0.65</text>
    <text x="850" y="95" fill="#333" font-family="Arial, sans-serif" font-size="10">1225ν</text>

    <text x="710" y="115" fill="#333" font-family="Arial, sans-serif" font-size="10">3</text>
    <rect x="750" y="107" width="25" height="12" rx="2" fill="#20c997"/>
    <text x="762" y="117" text-anchor="middle" fill="white" font-family="Arial, sans-serif" font-size="8" font-weight="bold">0.42</text>
    <text x="850" y="115" fill="#333" font-family="Arial, sans-serif" font-size="10">1215ν</text>

    <text x="710" y="135" fill="#333" font-family="Arial, sans-serif" font-size="10">4</text>
    <rect x="750" y="127" width="20" height="12" rx="2" fill="#0dcaf0"/>
    <text x="760" y="137" text-anchor="middle" fill="white" font-family="Arial, sans-serif" font-size="8" font-weight="bold">0.28</text>
    <text x="850" y="135" fill="#333" font-family="Arial, sans-serif" font-size="10">1210ν</text>

    <!-- Chart 4: 2nd Prize Frequency -->
    <rect x="1020" y="0" width="320" height="200" rx="10" fill="white" stroke="#dee2e6" filter="url(#shadow)"/>
    <text x="1180" y="25" text-anchor="middle" fill="#495057" font-family="Arial, sans-serif" font-size="14" font-weight="bold">2λ“± λμλ¦¬ μ¶ν„ λΉλ„</text>

    <!-- Bar chart for 2nd prize -->
    <g transform="translate(1040, 60)">
      <rect x="0" y="100" width="25" height="40" fill="#007bff"/>
      <rect x="30" y="80" width="25" height="60" fill="#28a745"/>
      <rect x="60" y="70" width="25" height="70" fill="#ffc107"/>
      <rect x="90" y="60" width="25" height="80" fill="#dc3545"/>
      <rect x="120" y="90" width="25" height="50" fill="#6c757d"/>
      <rect x="150" y="85" width="25" height="55" fill="#e83e8c"/>
      <rect x="180" y="50" width="25" height="90" fill="#fd7e14"/>
      <rect x="210" y="75" width="25" height="65" fill="#20c997"/>
      <rect x="240" y="95" width="25" height="45" fill="#6f42c1"/>
      <rect x="270" y="80" width="25" height="60" fill="#495057"/>

      <text x="12" y="155" text-anchor="middle" fill="#6c757d" font-family="Arial, sans-serif" font-size="8">0</text>
      <text x="42" y="155" text-anchor="middle" fill="#6c757d" font-family="Arial, sans-serif" font-size="8">1</text>
      <text x="72" y="155" text-anchor="middle" fill="#6c757d" font-family="Arial, sans-serif" font-size="8">2</text>
      <text x="102" y="155" text-anchor="middle" fill="#6c757d" font-family="Arial, sans-serif" font-size="8">3</text>
      <text x="132" y="155" text-anchor="middle" fill="#6c757d" font-family="Arial, sans-serif" font-size="8">4</text>
      <text x="162" y="155" text-anchor="middle" fill="#6c757d" font-family="Arial, sans-serif" font-size="8">5</text>
      <text x="192" y="155" text-anchor="middle" fill="#6c757d" font-family="Arial, sans-serif" font-size="8">6</text>
      <text x="222" y="155" text-anchor="middle" fill="#6c757d" font-family="Arial, sans-serif" font-size="8">7</text>
      <text x="252" y="155" text-anchor="middle" fill="#6c757d" font-family="Arial, sans-serif" font-size="8">8</text>
      <text x="282" y="155" text-anchor="middle" fill="#6c757d" font-family="Arial, sans-serif" font-size="8">9</text>
    </g>
  </g>

  <!-- Footer info -->
  <rect x="50" y="1000" width="1300" height="40" rx="5" fill="#e9ecef"/>
  <text x="70" y="1025" fill="#6c757d" font-family="Arial, sans-serif" font-size="12">π’΅ ν: κ° νƒ­μ„ ν΄λ¦­ν•μ—¬ λ” μƒμ„Έν• λ¶„μ„ κ²°κ³Όλ¥Ό ν™•μΈν•  μ μμµλ‹λ‹¤. μ°¨νΈλ” μ‹¤μ‹κ°„μΌλ΅ μ—…λ°μ΄νΈλ©λ‹λ‹¤.</text>
</svg>