<svg viewBox="0 0 1400 1300" xmlns="http://www.w3.org/2000/svg">
  <defs>
    <linearGradient id="headerGrad" x1="0%" y1="0%" x2="100%" y2="100%">
      <stop offset="0%" style="stop-color:#667eea;stop-opacity:1" />
      <stop offset="100%" style="stop-color:#764ba2;stop-opacity:1" />
    </linearGradient>
    <linearGradient id="insightGrad" x1="0%" y1="0%" x2="100%" y2="100%">
      <stop offset="0%" style="stop-color:#667eea;stop-opacity:1" />
      <stop offset="100%" style="stop-color:#764ba2;stop-opacity:1" />
    </linearGradient>
    <linearGradient id="cardGrad" x1="0%" y1="0%" x2="100%" y2="100%">
      <stop offset="0%" style="stop-color:#ffffff;stop-opacity:1" />
      <stop offset="100%" style="stop-color:#f8f9fa;stop-opacity:1" />
    </linearGradient>
    <filter id="shadow" x="-20%" y="-20%" width="140%" height="140%">
      <feDropShadow dx="0" dy="4" stdDeviation="6" flood-color="#000000" flood-opacity="0.1"/>
    </filter>
  </defs>

  <!-- Background -->
  <rect width="1400" height="1300" fill="#f5f5f5"/>

  <!-- Header -->
  <rect x="20" y="20" width="1360" height="100" rx="15" fill="url(#headerGrad)" filter="url(#shadow)"/>
  <text x="700" y="60" text-anchor="middle" fill="white" font-family="Arial, sans-serif" font-size="28" font-weight="bold">🔍 고급 패턴 분석</text>
  <text x="700" y="85" text-anchor="middle" fill="white" font-family="Arial, sans-serif" font-size="16" opacity="0.9">홀짝, 연속, 간격 등 상세한 패턴 분석</text>

  <!-- Pattern Overview Cards -->
  <text x="50" y="160" fill="#495057" font-family="Arial, sans-serif" font-size="20" font-weight="bold">📊 패턴 분석 개요</text>

  <g transform="translate(50, 180)">
    <!-- Pattern Stats Grid -->
    <rect x="0" y="0" width="160" height="100" rx="8" fill="#f8f9fa" stroke="#007bff" stroke-width="2" filter="url(#shadow)"/>
    <text x="80" y="35" text-anchor="middle" fill="#007bff" font-family="Arial, sans-serif" font-size="24" font-weight="bold">1,234</text>
    <text x="80" y="55" text-anchor="middle" fill="#6c757d" font-family="Arial, sans-serif" font-size="12">분석 회차</text>

    <rect x="180" y="0" width="160" height="100" rx="8" fill="#f8f9fa" stroke="#007bff" stroke-width="2" filter="url(#shadow)"/>
    <text x="260" y="35" text-anchor="middle" fill="#007bff" font-family="Arial, sans-serif" font-size="24" font-weight="bold">52.3%</text>
    <text x="260" y="55" text-anchor="middle" fill="#6c757d" font-family="Arial, sans-serif" font-size="12">전체 홀수 비율</text>

    <rect x="360" y="0" width="160" height="100" rx="8" fill="#f8f9fa" stroke="#007bff" stroke-width="2" filter="url(#shadow)"/>
    <text x="440" y="35" text-anchor="middle" fill="#007bff" font-family="Arial, sans-serif" font-size="24" font-weight="bold">4</text>
    <text x="440" y="55" text-anchor="middle" fill="#6c757d" font-family="Arial, sans-serif" font-size="12">최대 상승 연속</text>

    <rect x="540" y="0" width="160" height="100" rx="8" fill="#f8f9fa" stroke="#007bff" stroke-width="2" filter="url(#shadow)"/>
    <text x="620" y="35" text-anchor="middle" fill="#007bff" font-family="Arial, sans-serif" font-size="24" font-weight="bold">1</text>
    <text x="620" y="55" text-anchor="middle" fill="#6c757d" font-family="Arial, sans-serif" font-size="12">가장 흔한 간격</text>
  </g>

  <!-- Key Findings Box -->
  <g transform="translate(50, 300)">
    <rect x="0" y="0" width="680" height="140" rx="10" fill="url(#insightGrad)" filter="url(#shadow)"/>
    <text x="20" y="30" fill="white" font-family="Arial, sans-serif" font-size="16" font-weight="bold">💡 주요 발견사항</text>

    <text x="30" y="50" fill="white" font-family="Arial, sans-serif" font-size="12">• 전체 1,234회차 데이터를 분석했습니다.</text>
    <text x="30" y="65" fill="white" font-family="Arial, sans-serif" font-size="12">• 홀수와 짝수의 전체 비율은 52.3% : 47.7%입니다.</text>
    <text x="30" y="80" fill="white" font-family="Arial, sans-serif" font-size="12">• 가장 흔한 홀짝 패턴은 'OEEOOE'으로 23번 출현했습니다.</text>
    <text x="30" y="95" fill="white" font-family="Arial, sans-serif" font-size="12">• 인접 숫자 간 가장 흔한 간격은 1으로 2,847번 나타났습니다.</text>
    <text x="30" y="110" fill="white" font-family="Arial, sans-serif" font-size="12">• 회차별 평균 최대 간격은 5.2이고, 전체 평균 간격은 2.8입니다.</text>
  </g>

  <!-- Pattern Tab Navigation -->
  <g transform="translate(50, 460)">
    <rect x="0" y="0" width="1300" height="50" rx="10 10 0 0" fill="white" filter="url(#shadow)"/>

    <rect x="20" y="10" width="150" height="30" rx="5" fill="white" stroke="#007bff" stroke-width="2"/>
    <text x="95" y="30" text-anchor="middle" fill="#007bff" font-family="Arial, sans-serif" font-size="14" font-weight="bold">🔢 홀짝 패턴</text>

    <rect x="180" y="10" width="150" height="30" rx="5" fill="#f8f9fa"/>
    <text x="255" y="30" text-anchor="middle" fill="#495057" font-family="Arial, sans-serif" font-size="14">📈 연속 패턴</text>

    <rect x="340" y="10" width="150" height="30" rx="5" fill="#f8f9fa"/>
    <text x="415" y="30" text-anchor="middle" fill="#495057" font-family="Arial, sans-serif" font-size="14">📏 간격 패턴</text>

    <rect x="500" y="10" width="150" height="30" rx="5" fill="#f8f9fa"/>
    <text x="575" y="30" text-anchor="middle" fill="#495057" font-family="Arial, sans-serif" font-size="14">📊 패턴 차트</text>
  </g>

  <!-- Pattern Content Area -->
  <rect x="50" y="510" width="1300" height="750" rx="0 0 10 10" fill="white" filter="url(#shadow)"/>

  <!-- Odd-Even Pattern Tab Content -->
  <text x="80" y="540" fill="#495057" font-family="Arial, sans-serif" font-size="18" font-weight="bold">🔢 홀수/짝수 분포 패턴</text>

  <!-- Overall Distribution -->
  <g transform="translate(80, 560)">
    <rect x="0" y="0" width="300" height="180" rx="8" fill="url(#cardGrad)" stroke="#dee2e6" filter="url(#shadow)"/>
    <text x="20" y="25" fill="#495057" font-family="Arial, sans-serif" font-size="14" font-weight="bold">전체 홀짝 분포</text>

    <rect x="20" y="40" width="80" height="60" rx="5" fill="#f8f9fa" stroke="#e9ecef"/>
    <text x="60" y="65" text-anchor="middle" fill="#007bff" font-family="Arial, sans-serif" font-size="18" font-weight="bold">3,870</text>
    <text x="60" y="85" text-anchor="middle" fill="#6c757d" font-family="Arial, sans-serif" font-size="10">총 홀수 개수</text>

    <rect x="120" y="40" width="80" height="60" rx="5" fill="#f8f9fa" stroke="#e9ecef"/>
    <text x="160" y="65" text-anchor="middle" fill="#007bff" font-family="Arial, sans-serif" font-size="18" font-weight="bold">3,534</text>
    <text x="160" y="85" text-anchor="middle" fill="#6c757d" font-family="Arial, sans-serif" font-size="10">총 짝수 개수</text>

    <!-- Pie chart representation -->
    <g transform="translate(230, 90)">
      <circle cx="0" cy="0" r="30" fill="none" stroke="#dee2e6" stroke-width="2"/>
      <path d="M 0 -30 A 30 30 0 0 1 15.6 -25.9 L 0 0 Z" fill="#ff5722"/>
      <path d="M 15.6 -25.9 A 30 30 0 1 1 0 -30 L 0 0 Z" fill="#2196f3"/>

      <text x="-15" y="-10" fill="white" font-family="Arial, sans-serif" font-size="8">52.3%</text>
      <text x="5" y="5" fill="white" font-family="Arial, sans-serif" font-size="8">47.7%</text>
    </g>
  </g>

  <!-- Position-wise Distribution -->
  <g transform="translate(400, 560)">
    <rect x="0" y="0" width="300" height="180" rx="8" fill="url(#cardGrad)" stroke="#dee2e6" filter="url(#shadow)"/>
    <text x="20" y="25" fill="#495057" font-family="Arial, sans-serif" font-size="14" font-weight="bold">자리별 홀짝 분포</text>

    <rect x="20" y="35" width="260" height="130" rx="5" fill="white" stroke="#dee2e6"/>

    <text x="30" y="55" fill="#333" font-family="Arial, sans-serif" font-size="11"><tspan font-weight="bold">1자리:</tspan> 홀수 53.2%</text>
    <text x="200" y="55" fill="#333" font-family="Arial, sans-serif" font-size="11">657:578</text>
    <rect x="30" y="60" width="50" height="8" fill="#ff5722" opacity="0.7"/>
    <rect x="80" y="60" width="45" height="8" fill="#2196f3" opacity="0.7"/>

    <text x="30" y="80" fill="#333" font-family="Arial, sans-serif" font-size="11"><tspan font-weight="bold">2자리:</tspan> 홀수 51.8%</text>
    <text x="200" y="80" fill="#333" font-family="Arial, sans-serif" font-size="11">639:595</text>
    <rect x="30" y="85" width="49" height="8" fill="#ff5722" opacity="0.7"/>
    <rect x="79" y="85" width="46" height="8" fill="#2196f3" opacity="0.7"/>

    <text x="30" y="105" fill="#333" font-family="Arial, sans-serif" font-size="11"><tspan font-weight="bold">3자리:</tspan> 홀수 52.1%</text>
    <text x="200" y="105" fill="#333" font-family="Arial, sans-serif" font-size="11">643:591</text>
    <rect x="30" y="110" width="49" height="8" fill="#ff5722" opacity="0.7"/>
    <rect x="79" y="110" width="46" height="8" fill="#2196f3" opacity="0.7"/>

    <text x="30" y="130" fill="#333" font-family="Arial, sans-serif" font-size="11"><tspan font-weight="bold">4자리:</tspan> 홀수 52.7%</text>
    <text x="200" y="130" fill="#333" font-family="Arial, sans-serif" font-size="11">650:584</text>
    <rect x="30" y="135" width="50" height="8" fill="#ff5722" opacity="0.7"/>
    <rect x="80" y="135" width="45" height="8" fill="#2196f3" opacity="0.7"/>

    <text x="30" y="155" fill="#333" font-family="Arial, sans-serif" font-size="11"><tspan font-weight="bold">5자리:</tspan> 홀수 51.9%</text>
    <text x="200" y="155" fill="#333" font-family="Arial, sans-serif" font-size="11">641:593</text>
    <rect x="30" y="160" width="49" height="8" fill="#ff5722" opacity="0.7"/>
    <rect x="79" y="160" width="46" height="8" fill="#2196f3" opacity="0.7"/>
  </g>

  <!-- Top Patterns -->
  <g transform="translate(720, 560)">
    <rect x="0" y="0" width="580" height="180" rx="8" fill="url(#cardGrad)" stroke="#dee2e6" filter="url(#shadow)"/>
    <text x="20" y="25" fill="#495057" font-family="Arial, sans-serif" font-size="14" font-weight="bold">상위 홀짝 패턴 (O:홀수, E:짝수)</text>

    <rect x="20" y="35" width="540" height="130" rx="5" fill="white" stroke="#dee2e6"/>

    <!-- Pattern list -->
    <rect x="30" y="45" width="520" height="18" rx="3" fill="#f8f9fa" stroke="#28a745" stroke-width="2"/>
    <text x="40" y="58" fill="#333" font-family="Arial, sans-serif" font-size="11" font-weight="bold">OEEOOE</text>
    <text x="520" y="58" text-anchor="end" fill="#333" font-family="Arial, sans-serif" font-size="11" font-weight="bold">23회</text>

    <rect x="30" y="68" width="520" height="18" rx="3" fill="white"/>
    <text x="40" y="81" fill="#333" font-family="Arial, sans-serif" font-size="11" font-weight="bold">EOOEEO</text>
    <text x="520" y="81" text-anchor="end" fill="#333" font-family="Arial, sans-serif" font-size="11" font-weight="bold">21회</text>

    <rect x="30" y="91" width="520" height="18" rx="3" fill="#f8f9fa"/>
    <text x="40" y="104" fill="#333" font-family="Arial, sans-serif" font-size="11" font-weight="bold">OEOELE</text>
    <text x="520" y="104" text-anchor="end" fill="#333" font-family="Arial, sans-serif" font-size="11" font-weight="bold">20회</text>

    <rect x="30" y="114" width="520" height="18" rx="3" fill="white"/>
    <text x="40" y="127" fill="#333" font-family="Arial, sans-serif" font-size="11" font-weight="bold">EOELEO</text>
    <text x="520" y="127" text-anchor="end" fill="#333" font-family="Arial, sans-serif" font-size="11" font-weight="bold">19회</text>

    <rect x="30" y="137" width="520" height="18" rx="3" fill="#f8f9fa"/>
    <text x="40" y="150" fill="#333" font-family="Arial, sans-serif" font-size="11" font-weight="bold">OOEEOO</text>
    <text x="520" y="150" text-anchor="end" fill="#333" font-family="Arial, sans-serif" font-size="11" font-weight="bold">18회</text>
  </g>

  <!-- Gap Pattern Analysis -->
  <text x="80" y="780" fill="#495057" font-family="Arial, sans-serif" font-size="18" font-weight="bold">📏 숫자 간격 패턴 분석</text>

  <g transform="translate(80, 800)">
    <!-- Adjacent Gap Distribution -->
    <rect x="0" y="0" width="400" height="200" rx="8" fill="url(#cardGrad)" stroke="#dee2e6" filter="url(#shadow)"/>
    <text x="20" y="25" fill="#495057" font-family="Arial, sans-serif" font-size="14" font-weight="bold">인접 숫자 간격 분포</text>

    <!-- Bar chart for gaps -->
    <g transform="translate(40, 50)">
      <rect x="0" y="100" width="30" height="80" fill="#007bff"/>
      <rect x="35" y="120" width="30" height="60" fill="#28a745"/>
      <rect x="70" y="140" width="30" height="40" fill="#ffc107"/>
      <rect x="105" y="150" width="30" height="30" fill="#dc3545"/>
      <rect x="140" y="160" width="30" height="20" fill="#6c757d"/>
      <rect x="175" y="165" width="30" height="15" fill="#e83e8c"/>
      <rect x="210" y="170" width="30" height="10" fill="#fd7e14"/>
      <rect x="245" y="172" width="30" height="8" fill="#20c997"/>
      <rect x="280" y="174" width="30" height="6" fill="#6f42c1"/>

      <text x="15" y="195" text-anchor="middle" fill="#6c757d" font-family="Arial, sans-serif" font-size="10">0</text>
      <text x="50" y="195" text-anchor="middle" fill="#6c757d" font-family="Arial, sans-serif" font-size="10">1</text>
      <text x="85" y="195" text-anchor="middle" fill="#6c757d" font-family="Arial, sans-serif" font-size="10">2</text>
      <text x="120" y="195" text-anchor="middle" fill="#6c757d" font-family="Arial, sans-serif" font-size="10">3</text>
      <text x="155" y="195" text-anchor="middle" fill="#6c757d" font-family="Arial, sans-serif" font-size="10">4</text>
      <text x="190" y="195" text-anchor="middle" fill="#6c757d" font-family="Arial, sans-serif" font-size="10">5</text>
      <text x="225" y="195" text-anchor="middle" fill="#6c757d" font-family="Arial, sans-serif" font-size="10">6</text>
      <text x="260" y="195" text-anchor="middle" fill="#6c757d" font-family="Arial, sans-serif" font-size="10">7</text>
      <text x="295" y="195" text-anchor="middle" fill="#6c757d" font-family="Arial, sans-serif" font-size="10">8</text>

      <!-- Value labels on bars -->
      <text x="15" y="125" text-anchor="middle" fill="white" font-family="Arial, sans-serif" font-size="8" font-weight="bold">2847</text>
      <text x="50" y="145" text-anchor="middle" fill="white" font-family="Arial, sans-serif" font-size="8" font-weight="bold">1923</text>
      <text x="85" y="165" text-anchor="middle" fill="white" font-family="Arial, sans-serif" font-size="8" font-weight="bold">1456</text>
      <text x="120" y="175" text-anchor="middle" fill="white" font-family="Arial, sans-serif" font-size="8" font-weight="bold">892</text>
    </g>
  </g>

  <!-- Gap Statistics -->
  <g transform="translate(500, 800)">
    <rect x="0" y="0" width="400" height="200" rx="8" fill="url(#cardGrad)" stroke="#dee2e6" filter="url(#shadow)"/>
    <text x="20" y="25" fill="#495057" font-family="Arial, sans-serif" font-size="14" font-weight="bold">간격 통계</text>

    <rect x="20" y="50" width="100" height="60" rx="5" fill="#f8f9fa" stroke="#007bff" stroke-width="2"/>
    <text x="70" y="75" text-anchor="middle" fill="#007bff" font-family="Arial, sans-serif" font-size="18" font-weight="bold">5.2</text>
    <text x="70" y="95" text-anchor="middle" fill="#6c757d" font-family="Arial, sans-serif" font-size="10">평균 최대 간격</text>

    <rect x="140" y="50" width="100" height="60" rx="5" fill="#f8f9fa" stroke="#007bff" stroke-width="2"/>
    <text x="190" y="75" text-anchor="middle" fill="#007bff" font-family="Arial, sans-serif" font-size="18" font-weight="bold">0.8</text>
    <text x="190" y="95" text-anchor="middle" fill="#6c757d" font-family="Arial, sans-serif" font-size="10">평균 최소 간격</text>

    <rect x="260" y="50" width="100" height="60" rx="5" fill="#f8f9fa" stroke="#007bff" stroke-width="2"/>
    <text x="310" y="75" text-anchor="middle" fill="#007bff" font-family="Arial, sans-serif" font-size="18" font-weight="bold">2.8</text>
    <text x="310" y="95" text-anchor="middle" fill="#6c757d" font-family="Arial, sans-serif" font-size="10">전체 평균 간격</text>

    <!-- Mini histogram for gap distribution -->
    <text x="20" y="140" fill="#495057" font-family="Arial, sans-serif" font-size="12" font-weight="bold">회차별 평균 간격 분포:</text>

    <g transform="translate(30, 150)">
      <rect x="0" y="20" width="8" height="20" fill="#007bff" opacity="0.7"/>
      <rect x="10" y="15" width="8" height="25" fill="#007bff" opacity="0.7"/>
      <rect x="20" y="10" width="8" height="30" fill="#007bff" opacity="0.7"/>
      <rect x="30" y="5" width="8" height="35" fill="#007bff" opacity="0.7"/>
      <rect x="40" y="8" width="8" height="32" fill="#007bff" opacity="0.7"/>
      <rect x="50" y="12" width="8" height="28" fill="#007bff" opacity="0.7"/>
      <rect x="60" y="18" width="8" height="22" fill="#007bff" opacity="0.7"/>
      <rect x="70" y="25" width="8" height="15" fill="#007bff" opacity="0.7"/>
      <rect x="80" y="30" width="8" height="10" fill="#007bff" opacity="0.7"/>
      <rect x="90" y="35" width="8" height="5" fill="#007bff" opacity="0.7"/>

      <text x="4" y="55" text-anchor="middle" fill="#6c757d" font-family="Arial, sans-serif" font-size="8">1.5</text>
      <text x="24" y="55" text-anchor="middle" fill="#6c757d" font-family="Arial, sans-serif" font-size="8">2.5</text>
      <text x="44" y="55" text-anchor="middle" fill="#6c757d" font-family="Arial, sans-serif" font-size="8">3.5</text>
      <text x="64" y="55" text-anchor="middle" fill="#6c757d" font-family="Arial, sans-serif" font-size="8">4.5</text>
      <text x="84" y="55" text-anchor="middle" fill="#6c757d" font-family="Arial, sans-serif" font-size="8">5.5</text>
    </g>
  </g>

  <!-- Analysis Notes -->
  <g transform="translate(920, 800)">
    <rect x="0" y="0" width="380" height="200" rx="8" fill="#fff3cd" stroke="#ffeaa7" filter="url(#shadow)"/>
    <text x="20" y="25" fill="#856404" font-family="Arial, sans-serif" font-size="14" font-weight="bold">🔍 패턴 분석 노트</text>

    <text x="20" y="50" fill="#856404" font-family="Arial, sans-serif" font-size="11">• 간격 1이 가장 흔하게 나타나는 것은</text>
    <text x="25" y="65" fill="#856404" font-family="Arial, sans-serif" font-size="11">  연속된 숫자의 출현이 많기 때문입니다.</text>

    <text x="20" y="85" fill="#856404" font-family="Arial, sans-serif" font-size="11">• 홀수가 52.3%로 짝수보다 약간</text>
    <text x="25" y="100" fill="#856404" font-family="Arial, sans-serif" font-size="11">  많이 출현하는 경향을 보입니다.</text>

    <text x="20" y="120" fill="#856404" font-family="Arial, sans-serif" font-size="11">• 각 자리별로 홀짝 비율이 다르게</text>
    <text x="25" y="135" fill="#856404" font-family="Arial, sans-serif" font-size="11">  나타나므로 자리별 특성을 고려해야</text>
    <text x="25" y="150" fill="#856404" font-family="Arial, sans-serif" font-size="11">  합니다.</text>

    <text x="20" y="170" fill="#856404" font-family="Arial, sans-serif" font-size="11">• 평균 간격 2.8은 숫자들이 비교적</text>
    <text x="25" y="185" fill="#856404" font-family="Arial, sans-serif" font-size="11">  가까운 범위에서 분포함을 의미합니다.</text>
  </g>

  <!-- Footer -->
  <rect x="50" y="1050" width="1300" height="40" rx="5" fill="#e9ecef"/>
  <text x="70" y="1075" fill="#6c757d" font-family="Arial, sans-serif" font-size="12">💡 패턴 분석은 통계적 경향성을 보여주며, 실제 당첨 예측을 보장하지 않습니다. 참고용으로만 활용하세요.</text>
</svg>