<svg viewBox="0 0 1400 1000" xmlns="http://www.w3.org/2000/svg">
  <defs>
    <linearGradient id="headerGrad" x1="0%" y1="0%" x2="100%" y2="100%">
      <stop offset="0%" style="stop-color:#667eea;stop-opacity:1" />
      <stop offset="100%" style="stop-color:#764ba2;stop-opacity:1" />
    </linearGradient>
    <linearGradient id="cardGrad" x1="0%" y1="0%" x2="100%" y2="100%">
      <stop offset="0%" style="stop-color:#ffffff;stop-opacity:1" />
      <stop offset="100%" style="stop-color:#f8f9fa;stop-opacity:1" />
    </linearGradient>
    <filter id="shadow" x="-20%" y="-20%" width="140%" height="140%">
      <feDropShadow dx="0" dy="4" stdDeviation="6" flood-color="#000000" flood-opacity="0.1"/>
    </filter>
  </defs>

  <!-- Background -->
  <rect width="1400" height="1000" fill="#f5f5f5"/>

  <!-- Header -->
  <rect x="20" y="20" width="1360" height="120" rx="15" fill="url(#headerGrad)" filter="url(#shadow)"/>
  <text x="700" y="70" text-anchor="middle" fill="white" font-family="Arial, sans-serif" font-size="32" font-weight="bold">🎰 연금복권 패턴 분석 대시보드</text>
  <text x="700" y="100" text-anchor="middle" fill="white" font-family="Arial, sans-serif" font-size="18" opacity="0.9">데이터 기반 연금복권 당첨 패턴 분석 시스템</text>

  <!-- Navigation -->
  <rect x="20" y="160" width="1360" height="60" rx="10" fill="white" filter="url(#shadow)"/>
  <rect x="70" y="175" width="80" height="30" rx="5" fill="#007bff"/>
  <text x="110" y="195" text-anchor="middle" fill="white" font-family="Arial, sans-serif" font-size="14" font-weight="bold">🏠 홈</text>

  <rect x="170" y="175" width="100" height="30" rx="5" fill="#f8f9fa" stroke="#007bff" stroke-width="1"/>
  <text x="220" y="195" text-anchor="middle" fill="#007bff" font-family="Arial, sans-serif" font-size="14">📊 대시보드</text>

  <rect x="290" y="175" width="100" height="30" rx="5" fill="#f8f9fa" stroke="#007bff" stroke-width="1"/>
  <text x="340" y="195" text-anchor="middle" fill="#007bff" font-family="Arial, sans-serif" font-size="14">🔍 패턴분석</text>

  <rect x="950" y="175" width="90" height="30" rx="5" fill="#007bff"/>
  <text x="995" y="195" text-anchor="middle" fill="white" font-family="Arial, sans-serif" font-size="12">🕷️ 크롤링</text>

  <rect x="1050" y="175" width="90" height="30" rx="5" fill="#28a745"/>
  <text x="1095" y="195" text-anchor="middle" fill="white" font-family="Arial, sans-serif" font-size="12">📈 기본분석</text>

  <rect x="1150" y="175" width="90" height="30" rx="5" fill="#17a2b8"/>
  <text x="1195" y="195" text-anchor="middle" fill="white" font-family="Arial, sans-serif" font-size="12">🔢 번호분석</text>

  <rect x="1250" y="175" width="90" height="30" rx="5" fill="#6c757d"/>
  <text x="1295" y="195" text-anchor="middle" fill="white" font-family="Arial, sans-serif" font-size="12">🔍 패턴분석</text>

  <!-- Main Content Area -->
  <!-- System Status Card -->
  <rect x="40" y="250" width="400" height="300" rx="10" fill="url(#cardGrad)" filter="url(#shadow)"/>
  <text x="60" y="280" fill="#495057" font-family="Arial, sans-serif" font-size="18" font-weight="bold">📊 시스템 상태</text>

  <text x="60" y="310" fill="#333" font-family="Arial, sans-serif" font-size="14">크롤링 데이터:</text>
  <text x="200" y="310" fill="#28a745" font-family="Arial, sans-serif" font-size="14" font-weight="bold">✅ 있음</text>
  <text x="270" y="310" fill="#6c757d" font-family="Arial, sans-serif" font-size="12">(최종: 2025-05-31 15:30)</text>

  <text x="60" y="340" fill="#333" font-family="Arial, sans-serif" font-size="14">기본 분석:</text>
  <text x="200" y="340" fill="#28a745" font-family="Arial, sans-serif" font-size="14" font-weight="bold">✅ 완료</text>
  <text x="270" y="340" fill="#6c757d" font-family="Arial, sans-serif" font-size="12">(최종: 2025-05-31 15:45)</text>

  <text x="60" y="370" fill="#333" font-family="Arial, sans-serif" font-size="14">번호별 분석:</text>
  <text x="200" y="370" fill="#28a745" font-family="Arial, sans-serif" font-size="14" font-weight="bold">✅ 완료</text>
  <text x="270" y="370" fill="#6c757d" font-family="Arial, sans-serif" font-size="12">(최종: 2025-05-31 16:00)</text>

  <text x="60" y="400" fill="#333" font-family="Arial, sans-serif" font-size="14">패턴 분석:</text>
  <text x="200" y="400" fill="#28a745" font-family="Arial, sans-serif" font-size="14" font-weight="bold">✅ 완료</text>
  <text x="270" y="400" fill="#6c757d" font-family="Arial, sans-serif" font-size="12">(최종: 2025-05-31 16:15)</text>

  <rect x="60" y="420" width="360" height="40" rx="5" fill="#d4edda" stroke="#c3e6cb"/>
  <text x="70" y="445" fill="#155724" font-family="Arial, sans-serif" font-size="14" font-weight="bold">💡 모든 분석이 완료되었습니다!</text>

  <!-- Quick Actions Card -->
  <rect x="460" y="250" width="400" height="300" rx="10" fill="url(#cardGrad)" filter="url(#shadow)"/>
  <text x="480" y="280" fill="#495057" font-family="Arial, sans-serif" font-size="18" font-weight="bold">🚀 빠른 실행</text>

  <text x="480" y="310" fill="#333" font-family="Arial, sans-serif" font-size="14" font-weight="bold">1단계: 데이터 수집</text>
  <rect x="480" y="320" width="120" height="30" rx="5" fill="#007bff"/>
  <text x="540" y="340" text-anchor="middle" fill="white" font-family="Arial, sans-serif" font-size="12">🕷️ 데이터 크롤링</text>

  <text x="480" y="370" fill="#333" font-family="Arial, sans-serif" font-size="14" font-weight="bold">2단계: 기본 분석</text>
  <rect x="480" y="380" width="120" height="30" rx="5" fill="#28a745"/>
  <text x="540" y="400" text-anchor="middle" fill="white" font-family="Arial, sans-serif" font-size="12">📈 기본 분석 실행</text>

  <text x="480" y="430" fill="#333" font-family="Arial, sans-serif" font-size="14" font-weight="bold">3단계: 고급 분석</text>
  <rect x="480" y="440" width="120" height="30" rx="5" fill="#17a2b8"/>
  <text x="540" y="460" text-anchor="middle" fill="white" font-family="Arial, sans-serif" font-size="12">🔢 번호별 분석</text>

  <text x="480" y="490" fill="#333" font-family="Arial, sans-serif" font-size="14" font-weight="bold">4단계: 패턴 분석</text>
  <rect x="480" y="500" width="120" height="30" rx="5" fill="#6c757d"/>
  <text x="540" y="520" text-anchor="middle" fill="white" font-family="Arial, sans-serif" font-size="12">🔍 패턴 분석</text>

  <!-- Statistics Overview -->
  <rect x="880" y="250" width="480" height="300" rx="10" fill="url(#cardGrad)" filter="url(#shadow)"/>
  <text x="900" y="280" fill="#495057" font-family="Arial, sans-serif" font-size="18" font-weight="bold">📊 기본 통계</text>

  <!-- Stats Grid -->
  <rect x="920" y="300" width="100" height="80" rx="5" fill="#f8f9fa" stroke="#e9ecef"/>
  <text x="970" y="330" text-anchor="middle" fill="#007bff" font-family="Arial, sans-serif" font-size="24" font-weight="bold">1,234</text>
  <text x="970" y="350" text-anchor="middle" fill="#6c757d" font-family="Arial, sans-serif" font-size="12">총 회차</text>

  <rect x="1040" y="300" width="100" height="80" rx="5" fill="#f8f9fa" stroke="#e9ecef"/>
  <text x="1090" y="330" text-anchor="middle" fill="#007bff" font-family="Arial, sans-serif" font-size="24" font-weight="bold">3조</text>
  <text x="1090" y="350" text-anchor="middle" fill="#6c757d" font-family="Arial, sans-serif" font-size="12">최다 출현 조</text>

  <rect x="1160" y="300" width="100" height="80" rx="5" fill="#f8f9fa" stroke="#e9ecef"/>
  <text x="1210" y="330" text-anchor="middle" fill="#007bff" font-family="Arial, sans-serif" font-size="24" font-weight="bold">7</text>
  <text x="1210" y="350" text-anchor="middle" fill="#6c757d" font-family="Arial, sans-serif" font-size="12">2등 최다번호</text>

  <rect x="1280" y="300" width="100" height="80" rx="5" fill="#f8f9fa" stroke="#e9ecef"/>
  <text x="1330" y="330" text-anchor="middle" fill="#007bff" font-family="Arial, sans-serif" font-size="24" font-weight="bold">156</text>
  <text x="1330" y="350" text-anchor="middle" fill="#6c757d" font-family="Arial, sans-serif" font-size="12">출현 횟수</text>

  <!-- Chart Preview Area -->
  <rect x="40" y="580" width="1320" height="380" rx="10" fill="url(#cardGrad)" filter="url(#shadow)"/>
  <text x="60" y="610" fill="#495057" font-family="Arial, sans-serif" font-size="18" font-weight="bold">📈 분석 결과 미리보기</text>

  <!-- Chart 1: 조별 출현 빈도 -->
  <rect x="70" y="630" width="300" height="200" rx="5" fill="white" stroke="#dee2e6"/>
  <text x="220" y="650" text-anchor="middle" fill="#495057" font-family="Arial, sans-serif" font-size="14" font-weight="bold">조별 출현 빈도</text>

  <!-- Bar Chart -->
  <rect x="90" y="780" width="30" height="40" fill="#007bff"/>
  <rect x="130" y="760" width="30" height="60" fill="#28a745"/>
  <rect x="170" y="770" width="30" height="50" fill="#ffc107"/>
  <rect x="210" y="750" width="30" height="70" fill="#dc3545"/>
  <rect x="250" y="780" width="30" height="40" fill="#6c757d"/>

  <text x="105" y="845" text-anchor="middle" fill="#6c757d" font-family="Arial, sans-serif" font-size="10">1조</text>
  <text x="145" y="845" text-anchor="middle" fill="#6c757d" font-family="Arial, sans-serif" font-size="10">2조</text>
  <text x="185" y="845" text-anchor="middle" fill="#6c757d" font-family="Arial, sans-serif" font-size="10">3조</text>
  <text x="225" y="845" text-anchor="middle" fill="#6c757d" font-family="Arial, sans-serif" font-size="10">4조</text>
  <text x="265" y="845" text-anchor="middle" fill="#6c757d" font-family="Arial, sans-serif" font-size="10">5조</text>

  <!-- Chart 2: 번호별 출현 빈도 -->
  <rect x="390" y="630" width="300" height="200" rx="5" fill="white" stroke="#dee2e6"/>
  <text x="540" y="650" text-anchor="middle" fill="#495057" font-family="Arial, sans-serif" font-size="14" font-weight="bold">자리별 숫자 출현 빈도</text>

  <!-- Heatmap style visualization -->
  <g transform="translate(420, 670)">
    <rect x="0" y="0" width="25" height="20" fill="#ff5722" opacity="0.8"/>
    <rect x="25" y="0" width="25" height="20" fill="#ff9800" opacity="0.6"/>
    <rect x="50" y="0" width="25" height="20" fill="#ffeb3b" opacity="0.4"/>
    <rect x="75" y="0" width="25" height="20" fill="#4caf50" opacity="0.3"/>
    <rect x="100" y="0" width="25" height="20" fill="#2196f3" opacity="0.5"/>
    <rect x="125" y="0" width="25" height="20" fill="#9c27b0" opacity="0.7"/>

    <rect x="0" y="25" width="25" height="20" fill="#4caf50" opacity="0.6"/>
    <rect x="25" y="25" width="25" height="20" fill="#ff5722" opacity="0.9"/>
    <rect x="50" y="25" width="25" height="20" fill="#2196f3" opacity="0.4"/>
    <rect x="75" y="25" width="25" height="20" fill="#ff9800" opacity="0.7"/>
    <rect x="100" y="25" width="25" height="20" fill="#ffeb3b" opacity="0.5"/>
    <rect x="125" y="25" width="25" height="20" fill="#9c27b0" opacity="0.3"/>
  </g>

  <text x="410" y="730" fill="#6c757d" font-family="Arial, sans-serif" font-size="10">1자리</text>
  <text x="410" y="750" fill="#6c757d" font-family="Arial, sans-serif" font-size="10">2자리</text>

  <text x="430" y="810" fill="#6c757d" font-family="Arial, sans-serif" font-size="10">0</text>
  <text x="455" y="810" fill="#6c757d" font-family="Arial, sans-serif" font-size="10">1</text>
  <text x="480" y="810" fill="#6c757d" font-family="Arial, sans-serif" font-size="10">2</text>
  <text x="505" y="810" fill="#6c757d" font-family="Arial, sans-serif" font-size="10">3</text>
  <text x="530" y="810" fill="#6c757d" font-family="Arial, sans-serif" font-size="10">4</text>
  <text x="555" y="810" fill="#6c757d" font-family="Arial, sans-serif" font-size="10">5</text>

  <!-- Chart 3: 패턴 분석 -->
  <rect x="710" y="630" width="300" height="200" rx="5" fill="white" stroke="#dee2e6"/>
  <text x="860" y="650" text-anchor="middle" fill="#495057" font-family="Arial, sans-serif" font-size="14" font-weight="bold">홀짝 패턴 분석</text>

  <!-- Pie Chart -->
  <circle cx="860" cy="730" r="40" fill="none" stroke="#dee2e6" stroke-width="2"/>
  <path d="M 860 690 A 40 40 0 0 1 884.7 704.7 L 860 730 Z" fill="#ff5722"/>
  <path d="M 884.7 704.7 A 40 40 0 1 1 860 690 L 860 730 Z" fill="#2196f3"/>

  <text x="830" y="720" fill="#6c757d" font-family="Arial, sans-serif" font-size="10">홀수</text>
  <text x="830" y="735" fill="#6c757d" font-family="Arial, sans-serif" font-size="10">52.3%</text>

  <text x="880" y="720" fill="#6c757d" font-family="Arial, sans-serif" font-size="10">짝수</text>
  <text x="880" y="735" fill="#6c757d" font-family="Arial, sans-serif" font-size="10">47.7%</text>

  <!-- Chart 4: 트렌드 분석 -->
  <rect x="1030" y="630" width="300" height="200" rx="5" fill="white" stroke="#dee2e6"/>
  <text x="1180" y="650" text-anchor="middle" fill="#495057" font-family="Arial, sans-serif" font-size="14" font-weight="bold">최근 트렌드 분석</text>

  <!-- Line Chart -->
  <polyline points="1060,800 1080,780 1100,790 1120,770 1140,760 1160,780 1180,750 1200,770 1220,740 1240,760 1260,730 1280,750 1300,720"
            fill="none" stroke="#007bff" stroke-width="3"/>

  <circle cx="1060" cy="800" r="3" fill="#007bff"/>
  <circle cx="1120" cy="770" r="3" fill="#007bff"/>
  <circle cx="1180" cy="750" r="3" fill="#007bff"/>
  <circle cx="1240" cy="760" r="3" fill="#007bff"/>
  <circle cx="1300" cy="720" r="3" fill="#007bff"/>

  <text x="1060" y="820" fill="#6c757d" font-family="Arial, sans-serif" font-size="10">1</text>
  <text x="1120" y="820" fill="#6c757d" font-family="Arial, sans-serif" font-size="10">10</text>
  <text x="1180" y="820" fill="#6c757d" font-family="Arial, sans-serif" font-size="10">20</text>
  <text x="1240" y="820" fill="#6c757d" font-family="Arial, sans-serif" font-size="10">30</text>
  <text x="1300" y="820" fill="#6c757d" font-family="Arial, sans-serif" font-size="10">40</text>

  <!-- Loading indicator (hidden by default) -->
  <g opacity="0">
    <rect x="600" y="450" width="200" height="60" rx="10" fill="white" filter="url(#shadow)"/>
    <text x="700" y="475" text-anchor="middle" fill="#007bff" font-family="Arial, sans-serif" font-size="14">작업을 실행 중입니다...</text>
    <circle cx="650" cy="490" r="8" fill="none" stroke="#007bff" stroke-width="2" opacity="0.3"/>
    <circle cx="650" cy="490" r="8" fill="none" stroke="#007bff" stroke-width="2" stroke-dasharray="15 10">
      <animateTransform attributeName="transform" type="rotate" values="0 650 490;360 650 490" dur="1s" repeatCount="indefinite"/>
    </circle>
  </g>
</svg>